<?xml version="1.0" encoding="utf-8"?>
<!-- Generator: Adobe Illustrator 24.2.1, SVG Export Plug-In . SVG Version: 6.00 Build 0)  -->
<svg version="1.1" id="Layer_1" xmlns="http://www.w3.org/2000/svg" xmlns:xlink="http://www.w3.org/1999/xlink" x="0px" y="0px"
	 viewBox="0 0 206 209" style="enable-background:new 0 0 206 209;" xml:space="preserve">
<style type="text/css">
	.st0{fill-rule:evenodd;clip-rule:evenodd;fill:#6AE8C5;}
	.st1{fill:none;}
</style>
<g>
	<g>
		<path class="st0" d="M121.8,69.5c-1.7,0-3.1,1.4-3.4,3.1c-1.4,7.2-7.8,12.6-15.4,12.6s-13.9-5.4-15.4-12.6
			c-0.3-1.7-1.7-3.1-3.4-3.1H71.6c-1.7,0-3.1,1.4-3.1,3.1v12.5c0,1.7,1.4,3.1,3.1,3.4c7.2,1.4,12.6,7.8,12.6,15.4
			s-5.4,13.9-12.6,15.4c-1.7,0.3-3.1,1.7-3.1,3.4v12.5c0,1.7,1.4,3.1,3.1,3.1h12.5c1.7,0,3.1-1.4,3.4-3.1
			c1.4-7.2,7.8-12.6,15.4-12.6s13.9,5.4,15.4,12.6c0.3,1.7,1.7,3.1,3.4,3.1h12.5c1.7,0,3.1-1.4,3.1-3.1v-12.5c0-1.7-1.4-3.1-3.1-3.4
			c-7.2-1.4-12.6-7.8-12.6-15.4S127,90,134.2,88.5c1.7-0.3,3.1-1.7,3.1-3.4V72.6c0-1.7-1.4-3.1-3.1-3.1H121.8z"/>
	</g>
	<rect x="0.6" y="0.5" class="st1" width="206" height="209"/>
</g>
</svg>
